<svg version="1.1" id="refresh" xmlns="http://www.w3.org/2000/svg" xmlns:xlink="http://www.w3.org/1999/xlink" x="0px" y="0px"
	 viewBox="0 0 16 16" style="enable-background:new 0 0 16 16;" xml:space="preserve">
<path stroke="none" d="M14.8,7.7c0-2-0.8-3.8-2.2-5.1L11.2,4c1,0.9,1.6,2.2,1.6,3.7c0,2.8-2.2,5-5,5v-1.5l-2.4,2.5l2.4,2.5v-1.5
	C11.7,14.7,14.8,11.6,14.8,7.7z"/>
<path stroke="none" d="M10.2,2.6L7.7,0.2v1.4C4,1.8,1,4.8,1,8.6c0,2,0.8,3.8,2.2,5.1l1.4-1.5C3.5,11.3,3,10.1,3,8.6c0-2.7,2.1-4.8,4.7-5v1.5
	L10.2,2.6z"/>
</svg>
